<svg xmlns="http://www.w3.org/2000/svg" viewBox="0 0 298.56 91.1" fill="#fff"><path d="M11.17 24.94l4.85-4.06 1.66-1.52a5.9 5.9 0 0 0 1.09-1.52 18.2 18.2 0 0 0 .89-2.22L20.88 12h-.13a8.66 8.66 0 0 1-2.24 3.17 33.49 33.49 0 0 1-2.93 2.22 27.48 27.48 0 0 0-3.19 2.54 13.51 13.51 0 0 0-2.88 4v-.13l1.72-5.58 1-4a13.42 13.42 0 0 1 1.14-3 7.86 7.86 0 0 1 2.23-2.39V8.7a9.58 9.58 0 0 0-5.6 4.06 12.32 12.32 0 0 0-2.16 7.11v8.87a14.05 14.05 0 0 1 3.33-3.8zm6-10.85a42.51 42.51 0 0 0 3.23-3.74l2.8-3.6a21 21 0 0 1 3-3.11l-.13-.13A7.19 7.19 0 0 1 23.19 5a16 16 0 0 0-3.61 1.65 12.78 12.78 0 0 0-3.68 3.62 22.57 22.57 0 0 0-3 7.29 24.7 24.7 0 0 0 4.27-3.47zM2.94 47.26A37.25 37.25 0 0 0 5.78 51a28.94 28.94 0 0 1 3.09 4.51H9a12.71 12.71 0 0 1-.16-2v-1.8a13.35 13.35 0 0 1 .72-3.36l1.5-5.2 1.37-5.77a17 17 0 0 0 .33-5.2h-.16a10.81 10.81 0 0 1-1.34 3.23l-2 3.3a24.6 24.6 0 0 0-1.79 3.68 11.62 11.62 0 0 0-.76 4.25A10.14 10.14 0 0 0 7 48.72a12.21 12.21 0 0 1 .3 1.59h-.1A31.37 31.37 0 0 0 5.78 45l-3.4-8.64a9.32 9.32 0 0 1-.62-2.92l.08-2c.08-.48.08-1.15.08-1.9H1.8a28.85 28.85 0 0 0-1 3.3 15.81 15.81 0 0 0-.61 4.06A20.31 20.31 0 0 0 .92 43a16.84 16.84 0 0 0 2.02 4.26zM26 81.64a12.07 12.07 0 0 0 1.39.06 14.13 14.13 0 0 0 1.9-.12l2.28-.38 3.62-.83 5.9-1.46-4.18-1.2a9.49 9.49 0 0 1-3.55-2.2l-4.3-3.92-3.43-3.06-2.47-2.24-.12.13c.2.3 1.75 3.44 1.75 3.44l.35.52 1.25 2.27.47.9A6.91 6.91 0 0 0 29 76a13.74 13.74 0 0 0 5.33 2.65v.13l-4.73-.76c-.57-.1-1.23-.14-1.86-.2l-2.28-.2-1.8-.27-1.75-.2-.92-.1a20.74 20.74 0 0 1-3.18-.57 11 11 0 0 1-2.87-1.2 18 18 0 0 1-3.06-2.35l-.13.13a15.88 15.88 0 0 0 1.72 2.41A20.07 20.07 0 0 0 16.09 78a15.05 15.05 0 0 0 3.76 2.19 20.26 20.26 0 0 0 5 1.29zM6.25 41.93h.16a12.1 12.1 0 0 1 .37-2 11 11 0 0 1 .94-2.15 33.26 33.26 0 0 1 1.94-3q1.26-1.77 3.4-4.82a16.48 16.48 0 0 0 2-4.44l1-3.67h-.13a5.08 5.08 0 0 1-.57 1.07 12.72 12.72 0 0 1-.81 1 18 18 0 0 1-1.32 1.33l-2.2 2a12.15 12.15 0 0 0-3.26 4.19 27.07 27.07 0 0 0-1.25 4.18h-.1c0-.67.1-1.33.12-2v-2.48c0-1.26-.08-2.74-.25-4.44s-.23-3.88-.23-6.6a5.82 5.82 0 0 1 .5-2.41q.5-1.14.87-2.16h-.1A21.33 21.33 0 0 0 3.68 22a19.1 19.1 0 0 0-1 5.89A18.26 18.26 0 0 0 4 34.51a54.26 54.26 0 0 1 2.25 7.42zm13.2 32.86l8.06 1.84a22.32 22.32 0 0 1-2.7-3.63 18.13 18.13 0 0 1-1.65-3.49Q22.4 67.44 21 64a16.45 16.45 0 0 0-.82-2q-.45-.88-1-1.83L17.78 58l-2.1-3-.13.13c.25.84.6 2.37 1.08 4.56l1.33 6.22a9.43 9.43 0 0 0 1.71 4 22.33 22.33 0 0 0 3.48 3.74l-.13.13a11.26 11.26 0 0 1-3.06-2 22.37 22.37 0 0 0-4.59-2.92 68.6 68.6 0 0 1-7.58-4.25 11.38 11.38 0 0 1-4.14-5l-.13.12a19 19 0 0 0 2.34 5.66 20.24 20.24 0 0 0 3.77 4.44A21.8 21.8 0 0 0 14.35 73a20.48 20.48 0 0 0 5.11 1.79zM7.6 61.72l9.4 6.22-1.06-2.4a14.42 14.42 0 0 1-.71-2.53l-.43-3.1-.43-4.12-.87-6.47a26.89 26.89 0 0 0-1.36-4.95H12a29.59 29.59 0 0 1-.18 3.65 24.71 24.71 0 0 1-.51 2.8l-.5 2.34a14 14 0 0 0-.19 2.47 11 11 0 0 0 .82 3.62A31.67 31.67 0 0 0 13 62.86l-.12.13a36.88 36.88 0 0 0-4.25-5.64l-3.8-4.06a29.15 29.15 0 0 1-2.92-3.62 10.39 10.39 0 0 1-1.58-4.44 10.32 10.32 0 0 0-.24 1.21 9.18 9.18 0 0 0-.08 1.2A13.38 13.38 0 0 0 .76 52a21.23 21.23 0 0 0 1.9 4.12 20.56 20.56 0 0 0 2.47 3.38 13.22 13.22 0 0 0 2.47 2.22zm77.1-55l2.8 3.62a45.61 45.61 0 0 0 3.23 3.74A24.3 24.3 0 0 0 95 17.59a22.57 22.57 0 0 0-3-7.29 12.73 12.73 0 0 0-3.7-3.61A16 16 0 0 0 84.69 5a7.45 7.45 0 0 1-2.86-1.52l-.13.13a20.88 20.88 0 0 1 2.99 3.14zM93 75.3a11.33 11.33 0 0 1-2.87 1.21 23.37 23.37 0 0 1-3.19.57l-.9.1-1.76.2-1.78.27c-.6.1-1.53.16-2.28.2l-1.86.2-2 .3-2.73.44v-.12A13.74 13.74 0 0 0 78.9 76a7 7 0 0 0 2.1-2.44l.47-.9 1.25-2.26a5.3 5.3 0 0 1 .35-.52l1.75-3.45-.12-.13a53.21 53.21 0 0 1-2.47 2.25L78.8 71.6l-4.3 3.9a9.53 9.53 0 0 1-3.5 2.23l-4.18 1.2 5.9 1.46 3.6.82 2.3.38a12.61 12.61 0 0 0 1.9.13l1.4-.06 1.2-.13a20.26 20.26 0 0 0 5-1.29 15.55 15.55 0 0 0 3.76-2.19 20.11 20.11 0 0 0 2.68-2.56 15.4 15.4 0 0 0 1.72-2.41l-.2-.08A18.38 18.38 0 0 1 93 75.3zm7.1-10.7a70.28 70.28 0 0 1-7.58 4.25 21.56 21.56 0 0 0-4.59 2.92 11.52 11.52 0 0 1-3.06 2l-.13-.13a23.13 23.13 0 0 0 3.48-3.74 9.53 9.53 0 0 0 1.71-4q.65-2.9 1.33-6.2l1.08-4.57-.13-.1-2.1 3-1.4 2.15c-.4.63-.72 1.25-1.02 1.85a15.84 15.84 0 0 0-.82 2l-2.17 5.52A18 18 0 0 1 83.06 73a22.73 22.73 0 0 1-2.7 3.58l2.76-.58 5.3-1.16A20.48 20.48 0 0 0 93.53 73a22.13 22.13 0 0 0 4.72-3.16 20.24 20.24 0 0 0 3.75-4.42 19.25 19.25 0 0 0 2.36-5.71l-.13-.13a11.4 11.4 0 0 1-4.12 5.01zm3.9-24.3q-1 2.16-1.9 4.7a31.63 31.63 0 0 0-1.43 5.33h-.12a12.21 12.21 0 0 1 .3-1.59 10 10 0 0 0 .3-2.09 11.66 11.66 0 0 0-.76-4.25 25.09 25.09 0 0 0-1.79-3.68l-2-3.3a11 11 0 0 1-1.34-3.24h-.13a17 17 0 0 0 .33 5.2q.58 2.92 1.37 5.77.8 2.85 1.5 5.2a13.43 13.43 0 0 1 .72 3.36v1.78a12.62 12.62 0 0 1-.16 2h.1a28.34 28.34 0 0 1 3.1-4.5 38.43 38.43 0 0 0 2.84-3.74A17.18 17.18 0 0 0 107 43a20.4 20.4 0 0 0 .76-6.15 15.75 15.75 0 0 0-.61-4.06 28.2 28.2 0 0 0-1-3.3H106l.08 1.9c.08.5.08 1.18.08 2a9.43 9.43 0 0 1-.62 2.92l-1.54 4zm-3.85-8.88a12.13 12.13 0 0 0-3.26-4.18l-2.2-2-1.3-1.34a12.75 12.75 0 0 1-.81-1 4.74 4.74 0 0 1-.57-1.12h-.13l1 3.68a16.76 16.76 0 0 0 2 4.44l3.4 4.82a33.29 33.29 0 0 1 1.94 3 11.29 11.29 0 0 1 .94 2.16 11.91 11.91 0 0 1 .37 2h.16a52.1 52.1 0 0 1 2.22-7.42 18.3 18.3 0 0 0 1.31-6.66 19.21 19.21 0 0 0-1-5.9 21.17 21.17 0 0 0-3.65-6.4h-.13l.87 2.15a5.85 5.85 0 0 1 .5 2.41q0 4.07-.24 6.6-.24 2.53-.24 4.44v2.47c0 .63.07 1.3.12 2h-.12a27.21 27.21 0 0 0-1.21-4.15zM94.5 11.25a13.33 13.33 0 0 1 1.14 3l1 4c.37 1.53.95 3.38 1.72 5.58v.13a13.7 13.7 0 0 0-2.88-4 28.22 28.22 0 0 0-3.19-2.53 35.26 35.26 0 0 1-2.94-2.22A8.85 8.85 0 0 1 87.13 12H87l1.22 3.6a17 17 0 0 0 .89 2.22 5.94 5.94 0 0 0 1.08 1.52l1.67 1.52q2.8 2.4 4.85 4.06a14 14 0 0 1 3.29 3.83v-8.88a12.32 12.32 0 0 0-2.16-7.1 9.54 9.54 0 0 0-5.59-4.06v.13a8 8 0 0 1 2.25 2.4zm-14.7 73a10.4 10.4 0 0 1-2.09-.25l-2.35-.44-2.56-.87-3.5-1.27-5.4-1.84a11.19 11.19 0 0 0-3.63-.58 17.9 17.9 0 0 0-3.7.44l-2.78.66c-.53-.16-1.4-.38-2.67-.66a17.71 17.71 0 0 0-3.67-.44 11 11 0 0 0-3.61.63l-5.4 1.9-6.2 2.14a14 14 0 0 1-4.18.62 13.2 13.2 0 0 1-1.78-.12 6.87 6.87 0 0 1-1.52-.38l-1.85-.63L20.5 82l-.12.12a25 25 0 0 0 4.45 3.42 13.93 13.93 0 0 0 7 2 18.42 18.42 0 0 0 2.72-.19 10.44 10.44 0 0 0 2.41-.7c.8-.33 1.7-.76 2.66-1.26l3.5-2 3.6-2.22a6.8 6.8 0 0 1 3.36-.82 5.09 5.09 0 0 1 1.52.25Q49.1 82 45.85 84a29.55 29.55 0 0 0-6.27 5.22l2.15 1.9A45.81 45.81 0 0 1 48 85a21.24 21.24 0 0 1 5.84-3.62A22.13 22.13 0 0 1 59.68 85 44.08 44.08 0 0 1 66 91.1l2.16-1.9a28.88 28.88 0 0 0-6.38-5.2q-3.3-2-5.84-3.34a7.67 7.67 0 0 1 1.66-.25 6.84 6.84 0 0 1 3.37.82q1.47.83 3.63 2.22l3.3 1.95a17.14 17.14 0 0 0 2.61 1.27 19.49 19.49 0 0 0 2.36.7 12.64 12.64 0 0 0 2.49.25h.5a15.37 15.37 0 0 0 5.78-1.27 15.2 15.2 0 0 0 5.65-4.18V82a38.49 38.49 0 0 1-4.2 1.72 10.57 10.57 0 0 1-3.3.51zm28.06-36.8v-.4a5.61 5.61 0 0 0-.06-.59l-.24-1.2a10.48 10.48 0 0 1-1.57 4.43 31.62 31.62 0 0 1-2.9 3.61l-.2.22-3.6 3.85a37.08 37.08 0 0 0-4.17 5.54 25.32 25.32 0 0 0 1.49-3.62 11.63 11.63 0 0 0 .76-3.61 15.17 15.17 0 0 0-.19-2.48q-.2-1.08-.45-2.34c-.23-.85-.38-1.85-.5-2.85a29.81 29.81 0 0 1-.22-3.65h-.1v.01h-.13a26.89 26.89 0 0 0-1.36 5l-.87 6.46-.43 4.13-.43 3.1a14.31 14.31 0 0 1-.68 2.48 18.42 18.42 0 0 1-.9 2c-.06.12-.13.23-.2.35h.05a.08.08 0 0 1 0 0l3.15-2.1 6.34-4.14a13.54 13.54 0 0 0 2.47-2.22 18.52 18.52 0 0 0 2.41-3.35 23.7 23.7 0 0 0 1.2-2.48l.64-1.64a13.36 13.36 0 0 0 .76-4.37c-.05-.03-.06-.1-.06-.18zM71 10.08a3.72 3.72 0 0 1 .68.38 5.87 5.87 0 0 1 .42.5.55.55 0 0 0 .44.26c.24 0 .37-.1.37-.26s0-.23-.06-.2-.07 0-.07-.2a1 1 0 0 0-.24-.75 1 1 0 0 0-1.11-.26.37.37 0 0 0-.24-.12H71c-.24 0-.37.08-.37.25s.14.3.37.38zM57.53 7h.26a5.82 5.82 0 0 1 1.53-.32h1.78a.91.91 0 0 0 .77-.32 3.55 3.55 0 0 0 .38-.58 2.41 2.41 0 0 0-1.53-.9 9.65 9.65 0 0 0-1.27-.13 7.79 7.79 0 0 0-1.53.47l-1.53.6c-.43-.1-.68 0-.76.27a5.85 5.85 0 0 0 .69.59 2 2 0 0 0 1.21.33zM53.7 76.53a38.27 38.27 0 1 0-38.26-38.27A38.31 38.31 0 0 0 53.7 76.53zm-36.3-37.3h5.82a30.3 30.3 0 0 0 1.2 7.54.71.71 0 0 1-.44-.31l-.18-.18-.64-.9-1.06.4c0 .6-.2.8-.63.64a.74.74 0 0 0-.51-.26 1.15 1.15 0 0 0-1.22 1.08 11.74 11.74 0 0 0-.19 1.47l.9 2.3c.18.26.43.3.77.13a9.06 9.06 0 0 0 .8.87.89.89 0 0 0 .65.26.35.35 0 0 0 .4-.39h.13a7.62 7.62 0 0 1 .53.58 3.08 3.08 0 0 0 .66.57v-.12a1.55 1.55 0 0 0 1.08.46 3.06 3.06 0 0 0 .75 1.41 1.43 1.43 0 0 0 1 .52.74.74 0 0 0 .51-.26 4.25 4.25 0 0 0 .63 1.29 5.79 5.79 0 0 1 .64.38 3.31 3.31 0 0 1 .51.39h.26a2.28 2.28 0 0 0 .63 1 4.83 4.83 0 0 0 .77.64h-.01.1l.26.3-4.1 4.1a36.19 36.19 0 0 1-9.99-23.9zm28-10.73a3.24 3.24 0 0 0-.33-.2l-.4-.4a13.71 13.71 0 0 1 8-3.33v4.05a.59.59 0 0 0-.17-.1.64.64 0 0 1-.1-.13.47.47 0 0 0-.31-.07.7.7 0 0 0-.14 0 1.18 1.18 0 0 0-.28 0 1 1 0 0 1-.3.06.29.29 0 0 1-.16 0c-.12-.1-.18-.27-.18-.58-.35.17-.54.34-.58.5l-.2.9a.94.94 0 0 1-.65.69 2.2 2.2 0 0 0-.77.45l-.4-.25h-.64a1.64 1.64 0 0 0-.39-.32 1 1 0 0 1-.25-.19q-.12-.13-.12 0a.31.31 0 0 0-.34.28l-.38-.37h.1v-.3a5.68 5.68 0 0 0-1-.7zm-2.1-2l-3.9-3.9a21.09 21.09 0 0 1 13.3-5.52v5.53a15.56 15.56 0 0 0-9.35 3.94zM45.54 45c.2-.2.1-.57.2-.82l-.44.4a3.72 3.72 0 0 0 .76-1 3.52 3.52 0 0 1 .38-.7l.46.8-3.57 3.57a13.58 13.58 0 0 1-3-5.75 3.26 3.26 0 0 1 .89.25 7.74 7.74 0 0 1 .8.73 1.11 1.11 0 0 0 .52-.13l.5.4a1 1 0 0 0 .13.63c0 .1.13.2.4.32a1.23 1.23 0 0 1 .52.44l.25-.12a4 4 0 0 0-.06-.51c0-.25 0-.38.06-.38l.25.9.26 1a.76.76 0 0 0 .7-.01zm7.6 4c.2.2.3.36.3.44 0 .26-.34.38-1 .38-.26 0-.43.25-.52.73l-.25 1.2h-.2v.05a13.73 13.73 0 0 1-6.78-3.16l3.45-3.45a8.16 8.16 0 0 0 4.86 2.2.94.94 0 0 0 .12.54.85.85 0 0 0-.25.63c-.04.1.06.24.28.44zm-17 .24a18.17 18.17 0 0 0-.26-2.17 10.45 10.45 0 0 0-.39-1.15 6 6 0 0 0-.4-1.72 7.3 7.3 0 0 0-1.21-1.59v-.74a3.23 3.23 0 0 0-.25-.74V41a.3.3 0 0 1 .2-.33l1.34-.46a3.16 3.16 0 0 1 .13-1.17l.93.16c.26 0 .4-.17.4-.53a4.3 4.3 0 0 0-.25-.79 2.77 2.77 0 0 1-.26-.92c0-.18.13-.33.38-.46a1.69 1.69 0 0 1 .76-.2 1 1 0 0 1 .89.44 2 2 0 0 1 .25 1 3.69 3.69 0 0 1-.06.69 2.44 2.44 0 0 0-.07.56l.26.13q-.26 1.26-1 1.26A.62.62 0 0 1 37 40a.53.53 0 0 0-.44-.32c-.08 0-.12 0-.12.13a1.27 1.27 0 0 0 .12.52 1.35 1.35 0 0 1 .13.64c0 .6-.27.8-.8.64-.18.32 0 .48.52.48.18.52.36.73.54.65a2.23 2.23 0 0 0 .26-.87 4.78 4.78 0 0 1 .26-1l.14.13.53-.13a1.06 1.06 0 0 0 0 .19h.15A15.49 15.49 0 0 0 42 48.62L36.58 54a.91.91 0 0 1-.29-.84c.1-.52.63-.84.7-1.38l.13-1a5.25 5.25 0 0 1-.93-1.53zm-3.1-8a1 1 0 0 1 .13.5c0 .26-.08.37-.26.32h-.1a21 21 0 0 1-.34-2.88h1.1a1.39 1.39 0 0 1-.11.52 4.76 4.76 0 0 1-.32.51.84.84 0 0 0-.2.5 1.25 1.25 0 0 0 .13.57zm-.56-4A21.15 21.15 0 0 1 38.06 24L42 27.9l-.1.13a3.44 3.44 0 0 0-.68.24l-.56.75a5.82 5.82 0 0 0-1.21.64 7.18 7.18 0 0 0-1 1l-1 .45a1.17 1.17 0 0 0-.45.31c.17.43.17.66 0 .7l-1.28.32a.41.41 0 0 0-.25.13l-.38.38a1 1 0 0 0-.13.45.94.94 0 0 1-.13.44 2.39 2.39 0 0 0-.63.64 1.52 1.52 0 0 0 0 1.15l.16 1.27h-.06a1.9 1.9 0 0 1 .11.39zM43.34 50a15.7 15.7 0 0 0 6.79 3.5l-.56.2a1 1 0 0 0-.77.83c-.08.5-.27.84-.57 1s-.4.32-.32.58a3.55 3.55 0 0 1 .89 1.54 1.59 1.59 0 0 0 1.28 1.15l.76.26a1.52 1.52 0 0 1 .76.28c.22 0 .44.06.66.1a21.07 21.07 0 0 1-12.83-5.54zm-5.28-28.74L34.2 17.4a28.48 28.48 0 0 1 18.53-7.7v5.47a23.06 23.06 0 0 0-14.67 6.09zm-1.36 1.37a23 23 0 0 0-6.09 14.67h-5.47a28.48 28.48 0 0 1 7.69-18.54zm-6.1 16.6a23.62 23.62 0 0 0 .3 2.82 4.32 4.32 0 0 1-.21-.38c-.3-.4-.56-.62-.75-.62a.51.51 0 0 0-.52.32 1.66 1.66 0 0 1-.39.57 3.5 3.5 0 0 1-1.41.64 3.15 3.15 0 0 0-.77 1.53.44.44 0 0 0 .06.51c.13.17.06.34-.2.5.17.34.2.55.13.64.08.17.06.23-.07.2a.3.3 0 0 0-.32.06.79.79 0 0 0-.18.29 28.1 28.1 0 0 1-1.15-7.08zm22.12 35.34a36.2 36.2 0 0 1-24-10l4.1-4.12a30.38 30.38 0 0 0 19.9 8.26zm0-7.75a28.47 28.47 0 0 1-18.45-7.62 2.54 2.54 0 0 0 1 .28 2.76 2.76 0 0 0 1-.27 11.36 11.36 0 0 0 1.15-.54 2.11 2.11 0 0 0 1.15-.25 1.91 1.91 0 0 0 1 0 .6.6 0 0 0 .45-.64.88.88 0 0 0-.45-.7c-.3-.2-.46-.4-.46-.57s-.08-.2-.26-.32a7.24 7.24 0 0 1-.82-.92 23.05 23.05 0 0 0 14.67 6.08zm1-14.2a2.74 2.74 0 0 1-1.26-.2c0-.1-.1-.22-.13-.34a5.28 5.28 0 0 1 .6-.39 1.73 1.73 0 0 1 .79-.33V51l.94-.7a1.1 1.1 0 0 1 .33-.12 4.78 4.78 0 0 0 .72-.26 4.52 4.52 0 0 1 1 .45 4.06 4.06 0 0 0 1 .44l.13-.5c.17 0 .42.17.76.5a1.25 1.25 0 0 0 .64-.25.88.88 0 0 0 0-.64 1.11 1.11 0 0 1 .38.13.24.24 0 0 1 .19.07.27.27 0 0 0 .19.06h.13a1.41 1.41 0 0 0 .7-.32 6.27 6.27 0 0 1 .7-.45.16.16 0 0 1 .25 0 .73.73 0 0 1 .13.51 1.63 1.63 0 0 1-1.08 1.53 17.07 17.07 0 0 1-1.85.76 2.41 2.41 0 0 0-.32.58c-.12.3-.27.44-.44.44a7.44 7.44 0 0 1-1.57-.22 2.62 2.62 0 0 1-.39-.77 4.22 4.22 0 0 0-.92.13l-1.05.26a1.24 1.24 0 0 1-.54 0zm5.52-4.2a1 1 0 0 1 .64-.83 2.83 2.83 0 0 1 1-.19c0 .25-.24.5-.7.76a3.23 3.23 0 0 1-.83.38zm3.95-3.12a1 1 0 0 1 .51 1 .45.45 0 0 1-.51.51c-.26 0-.47-.3-.64-.9-.6-.17-.93-.45-1-.83s0-.6.13-.7a3.52 3.52 0 0 1 .51-.19c.17 0 .2.15.13.57zm12.3-21.38a.36.36 0 0 1 .26.13 1.55 1.55 0 0 1 .89.25 9.7 9.7 0 0 1 1.54 1.91c.1 0 .2.13.32.4s.28.38.45.38a1.85 1.85 0 0 0 .66-.21c0-.12 0-.23.08-.35a28.51 28.51 0 0 1 2.56 10.88h-5.4a.3.3 0 0 1 0-.1 2.72 2.72 0 0 0-.3-1.42 2.77 2.77 0 0 1-.18-1.88 2 2 0 0 0 .07-1.07.75.75 0 0 0-.45.17 2.11 2.11 0 0 0-.33.57l-.3.7v.07a1 1 0 0 0-.1.24 1 1 0 0 1-.13.32l-.26 1a2.62 2.62 0 0 0 0 1 0 0 0 0 1 0 0v.4H72.1a1.56 1.56 0 0 1 .59-.39h-.1l.74-.37a.41.41 0 0 1-.25-.38c0-.25 0-.4.13-.44s.32-.15.74-.3a5.34 5.34 0 0 0 .68-1.19 7.71 7.71 0 0 0 1-2.53c0-.2-.26-.45-.3-.66a3.69 3.69 0 0 1 .06-.55c0-.9.4-2.44-.74-2.72-.1 0-.13-.13-.13-.38a.88.88 0 0 0 .26-1H74a1.14 1.14 0 0 1 .19-.45 1.12 1.12 0 0 0 .2-.57A.34.34 0 0 0 74 25a1.39 1.39 0 0 0-.65.13 1 1 0 0 1-.4.13.6.6 0 0 1-.2 0l-.17-.26a2 2 0 0 0-.58-1.28 2.49 2.49 0 0 0-1-.72.83.83 0 0 0 0-.54l1-1.16 1.55.56a1 1 0 0 0 .4.89 4.61 4.61 0 0 0 .54.38 5.68 5.68 0 0 1 .61.46v.07c.2.18.32.26.4.26zM70.25 61a.44.44 0 0 0-.32-.13c-.13 0-.2-.08-.2-.25s.13-.34.4-.5a1.92 1.92 0 0 0 .64-.89 2 2 0 0 0 .23-.82.29.29 0 0 0-.2-.31 1.35 1.35 0 0 1-.45-.32 5.12 5.12 0 0 0-.57-.25 4.23 4.23 0 0 1-.7-.39.74.74 0 0 1-.39-.64 3.26 3.26 0 0 1 .19-.63c0-.1.1-.23.14-.34l.3-.25 2.94 2.94c0 .34.2.53.6.6l.32.32a28 28 0 0 1-3.29 2.64 1.12 1.12 0 0 1 .22-.33.56.56 0 0 1 .15-.1.6.6 0 0 0 0-.34zm-1.77-14a.89.89 0 0 0-.78.13 1.13 1.13 0 0 0-.77.75c0 .08-.05.12-.13.12a1.2 1.2 0 0 0-.51.13 4.66 4.66 0 0 0-.64.26c-.25 0-.38-.1-.38-.26s.38-.42 1.15-.5q.5-.62.63-.75a1.45 1.45 0 0 1 .59-.25 2.75 2.75 0 0 0 1-.93 3.09 3.09 0 0 0 .48-.81h.12c0 .4.18.62.53.62s.5-.3.67-.88a4.59 4.59 0 0 0 1.07.26 1 1 0 0 0 .93-.49H74a.56.56 0 0 0 0 .12v.1a21.29 21.29 0 0 1-4.27 7.62v-.4s-.38-1.16-.46-1.16-.37.3-.6.9l-.48 1.14-1.28.26a4.9 4.9 0 0 1-1.14.13 3.21 3.21 0 0 1-1.08-.45 3.44 3.44 0 0 0-1.09-.44 7.83 7.83 0 0 0-1.08-.26c-.47-.08-.7-.2-.7-.38s.17-.38.5-.38a5.12 5.12 0 0 1 1 .19l1.53.38 1.4.38a4.14 4.14 0 0 0 .76.19l.77-.25a1.55 1.55 0 0 1 .25-.7 1.48 1.48 0 0 0 .26-.7 5.68 5.68 0 0 0 .47-1.4 6.77 6.77 0 0 0 .21-1.53c-.1-.47-.24-.75-.5-.75zm3.38-7.72h3a21.64 21.64 0 0 1-.5 3.72 4.21 4.21 0 0 0-.65-1.14l-1-1-.2-.9a1.07 1.07 0 0 0-.17-.3 2.07 2.07 0 0 1-.48-.44zM73.1 54.8c-.26 0-.38.07-.38.2a6.93 6.93 0 0 1-.12.79l-1.9-1.9a23 23 0 0 0 5.38-9.9l.1-.08q.64.24.84 0a.76.76 0 0 0 .19-.38 1.73 1.73 0 0 0-.63-1h-.16a23.94 23.94 0 0 0 .38-3.31h5.47a28.48 28.48 0 0 1-7.69 18.53l-.24-.23v-.05l-.28-1.72c-.1-.56-.44-.95-.95-.95zm-1.35-27.6a.1.1 0 0 0 0 0 2 2 0 0 1-.13.64 6.66 6.66 0 0 1-.25.64 3.88 3.88 0 0 0 1 .89 10.08 10.08 0 0 1 1.15.89 6.16 6.16 0 0 1 .57 1.47 6.79 6.79 0 0 1 .32 1.35 3.05 3.05 0 0 1-.38.9 1.51 1.51 0 0 1-1.27.77l-.13-.13a1.83 1.83 0 0 1 .25-.75 2 2 0 0 0 .26-.76 1 1 0 0 0 .51-.75l-.4-.2a4.42 4.42 0 0 1-.63-.57c0-.25-.26-.37-.76-.37a1 1 0 0 0-.64.19 7.6 7.6 0 0 1-.64.44l-.25-.5a1.25 1.25 0 0 0 .13-.53l-1-1.7a4 4 0 0 0-1.4-.44 2.31 2.31 0 0 0-1 0 2.37 2.37 0 0 1-1-.05A1.32 1.32 0 0 0 65 29a4.4 4.4 0 0 0-.84.83c-.13.15 0 .36-.33.28a1.81 1.81 0 0 1-.32-.34L69.33 24a1.33 1.33 0 0 0 .14.19l.5.57.54.68a21.49 21.49 0 0 1 1.23 1.76zM57.87 65.4a4.6 4.6 0 0 0 1.63.84 28.47 28.47 0 0 1-4.83.58v-5.47a3.24 3.24 0 0 0 .81.86 3.55 3.55 0 0 0 1.12.19c.57.05.86.15.86.32a1.2 1.2 0 0 1-.19.57 1.18 1.18 0 0 0-.2.58 1.93 1.93 0 0 0 .8 1.53zm-3.2 9.17v-5.82a30.47 30.47 0 0 0 6.33-.87.61.61 0 0 1 0 .12.45.45 0 0 1 0 .16 4.46 4.46 0 0 1 1.27 1.21c.17.34.64.5 1.4.5.43 0 .7-.08.83-.25a4.11 4.11 0 0 1 .45-.51 1.61 1.61 0 0 1 .63-.39.78.78 0 0 0 .51-.38 1.64 1.64 0 0 0 .9-.76 2.33 2.33 0 0 0 .76-1 .68.68 0 0 0 .51-.31 4 4 0 0 0 .51-1.34l.22-.13a1.25 1.25 0 0 1 0-.19 31.08 31.08 0 0 0 5.49-4.11l4.1 4.12a36.2 36.2 0 0 1-23.92 9.94zm25.38-11.33l-4.12-4.1a30.36 30.36 0 0 0 8.26-19.9H90a36.23 36.23 0 0 1-9.95 24.01zM90 37.3h-5.8a30.29 30.29 0 0 0-5.88-17 1.55 1.55 0 0 0-.29-.53 1.85 1.85 0 0 0-.33-.29l-1.5-1.76a1.74 1.74 0 0 1-.16-.41l4-4A36.25 36.25 0 0 1 90 37.3zM54.67 2a36.15 36.15 0 0 1 24 10l-3.54 3.54a2.7 2.7 0 0 1-.2-.54c-.28-.25-.46-.4-.53-.4a1 1 0 0 1-.58-.81 1.35 1.35 0 0 0-.32-.82 2.32 2.32 0 0 1-1.28-1.12c-.34-.58-.68-.88-1-.88a1.07 1.07 0 0 1-.83-.09 2.69 2.69 0 0 0-.83-.23 3 3 0 0 0-.9.13 8.47 8.47 0 0 1-1 .25l-.13.13A30.25 30.25 0 0 0 55.1 7.8c.33-.53.38-.88.12-1-.07-.07-.26 0-.55.3zm0 7.74a28.63 28.63 0 0 1 11.85 3 .29.29 0 0 0 0 .09l.5.56.44.5a8.48 8.48 0 0 0 .36 1.11 5.25 5.25 0 0 0 .39.63 1.37 1.37 0 0 0 .19 1.07 8.56 8.56 0 0 0 .7 1.07l.5-.06a3.25 3.25 0 0 1 .63-.07.84.84 0 0 1 .58.38 2.34 2.34 0 0 1 .44.77 1.52 1.52 0 0 1 .11.42l-1.56 1.56a8.55 8.55 0 0 0-.76-2.11 1.21 1.21 0 0 0-1-.33c-.1-.08-.38-.45-.9-1.1s-.8-1-.9-1a.5.5 0 0 0-.38.13 4.49 4.49 0 0 0 .26.45l.5.84a.23.23 0 0 1-.26.26.84.84 0 0 0 .64.64l-.13.25.37.75a23 23 0 0 0-12.62-4.42zm0 7.4A21.07 21.07 0 0 1 68 22.63l-3.9 3.9a15.56 15.56 0 0 0-9.39-3.9zm0 7.47a13.62 13.62 0 0 1 7.58 3 .81.81 0 0 0-.26.15 1 1 0 0 1-.26.18q-.12.06-.12.3c0 .2.28.3.48.32L60.6 30a2.49 2.49 0 0 0-.57.4c-.35.17-.54.32-.6.45s-.07.24-.12.44l-.5.5a.78.78 0 0 1-.22 0c-.17 0-.43-.17-.78-.52s-.6-.5-.78-.5a.77.77 0 0 0-.58.19.36.36 0 0 1-.45.05c-.17-.17 0-.36.58-.58l1.1-.45a2.45 2.45 0 0 0 1-2.05c0-.43-.17-.65-.52-.65l-.4.37a3.23 3.23 0 0 0-.91.61l-.65.62a1.74 1.74 0 0 0-.78-.13h-.76a.08.08 0 0 0 0 0zm-1.13 8.76c.06.13.14.2.23.2a1 1 0 0 1 .62.2.76.76 0 0 0 .65.08.49.49 0 0 0 .15.24.47.47 0 0 0 .49.27l.15.16a.7.7 0 0 1 .08.14 4.23 4.23 0 0 0 .21.45h.05v.1a.54.54 0 0 0 .41.06.48.48 0 0 1 .32 0v.28h.08a1.81 1.81 0 0 0 0 .31 3.07 3.07 0 0 1 .06.57v.25a.12.12 0 0 1-.13.13 1.06 1.06 0 0 0-.41.75c0 .17.1.23.34.2a.4.4 0 0 1 .48.19 1 1 0 0 1 .27.75v1.14a.42.42 0 0 0 .19.38c.13.08.2.16.2.25a4.17 4.17 0 0 1-.13.94 1.61 1.61 0 0 1-.38.82q-.14.12-.66 0a4.22 4.22 0 0 0-.92-.13c-.17 0-.35.26-.52.76a8.39 8.39 0 0 0-.4 1.15c-.08.34-.26.5-.52.5a2.24 2.24 0 0 0-.52.06H54l-.43.7-.14.18a6.13 6.13 0 0 1-3.86-1.68l.67-.67a6.94 6.94 0 0 0 1.23-.29l.22-.1c.68-.3.62-.85 1-1.44.22-.4.86-.83.35-1.27.57-1-2.08-1-2.55-.8s-.2.85-.5 1.3c-.15.23-.4.23-.6.4a3.36 3.36 0 0 0-1 1.32 6.5 6.5 0 0 1-.43-1h.1c-.05-.1-.07-.18 0-.2h.13v.13c.33.08.55.08.63 0a4.74 4.74 0 0 0 .19-.71 8.4 8.4 0 0 1 .7-1.49.59.59 0 0 1-.3-.39c0-.17-.14-.2-.3-.13a.43.43 0 0 0-.24.39.75.75 0 0 1-.24.51.69.69 0 0 1-.5.25.34.34 0 0 0-.38-.38.74.74 0 0 0-.51.26c-.17 0-.57 0-1.2.12a2.52 2.52 0 0 1-1.21 0c-.17-.16 0-.34.64-.5a1.76 1.76 0 0 1 .53-1.44 2 2 0 0 0 .77.26l.25-.26h.13c.25 0 .4.22.44.65s.15.64.32.64a.72.72 0 0 0 .51-.26V38l.38-1.42v-.38a2.13 2.13 0 0 1 .4-.63h.15a1.23 1.23 0 0 1 .59-.27 2 2 0 0 0 .25-.79c.26-.08.7-.26 1.34-.52s1-.52 1-.78v-.07a6.14 6.14 0 0 1 .86-.12.56.56 0 0 0 .15.32zM52.73 2v5.77A30.48 30.48 0 0 0 32.83 16l-4.1-4.1a36.15 36.15 0 0 1 24-9.9zM27.36 13.28l4.1 4.1a30.44 30.44 0 0 0-8.26 19.91h-5.8a36.22 36.22 0 0 1 9.97-24.02zM167 15.17l.23 3.2a9.62 9.62 0 0 1 7.92-3.69c2.92 0 5.1.85 6.52 2.57s2.15 4.28 2.2 7.7v17.8h-7.36V25.1a4.75 4.75 0 0 0-1-3.4 4.55 4.55 0 0 0-3.39-1.06 5.06 5.06 0 0 0-4.66 2.65v19.43h-7.36V15.17zM190.68 8a3.61 3.61 0 0 1 1.11-2.72 4.77 4.77 0 0 1 6 0A3.58 3.58 0 0 1 198.93 8a3.59 3.59 0 0 1-1.13 2.75 4.71 4.71 0 0 1-6 0A3.6 3.6 0 0 1 190.68 8zm7.82 34.7h-7.38V15.17h7.38zm15.2-34.3v6.77h4.7v5.4h-4.7v13.75a3.33 3.33 0 0 0 .58 2.2 3 3 0 0 0 2.24.66 11.66 11.66 0 0 0 2.17-.18v5.58a15.24 15.24 0 0 1-4.46.66q-7.74 0-7.9-7.82V20.57h-4v-5.4h4V8.4zm-35.03 78.67a8.19 8.19 0 0 1-.74-2.47 8.92 8.92 0 0 1-7 3 9.79 9.79 0 0 1-6.71-2.35 7.52 7.52 0 0 1-2.67-5.91 7.79 7.79 0 0 1 3.25-6.72c2.17-1.56 5.3-2.35 9.4-2.37h3.38v-1.6a4.49 4.49 0 0 0-1-3.05 3.82 3.82 0 0 0-3.09-1.15 4.43 4.43 0 0 0-2.92.89 3 3 0 0 0-1 2.45h-7.36a7.41 7.41 0 0 1 1.47-4.43 9.78 9.78 0 0 1 4.18-3.2 15.26 15.26 0 0 1 6.08-1.16 12.07 12.07 0 0 1 8.07 2.56 9 9 0 0 1 3 7.2V80.7a13.12 13.12 0 0 0 1.09 5.93v.44zm-6.1-5.07a6.29 6.29 0 0 0 3-.73 4.73 4.73 0 0 0 2-2v-4.73h-2.75q-5.52 0-5.88 3.82v.43a3 3 0 0 0 1 2.27 3.79 3.79 0 0 0 2.63.94zm25.65-29.26v6.77h4.7v5.4h-4.7v13.75a3.28 3.28 0 0 0 .59 2.19 2.93 2.93 0 0 0 2.24.66 11.68 11.68 0 0 0 2.16-.17v5.57a15.19 15.19 0 0 1-4.45.67q-7.75 0-7.9-7.82V64.9h-4v-5.4h4v-6.77zm8.08-.36a3.61 3.61 0 0 1 1.11-2.72 4.77 4.77 0 0 1 6 0 3.89 3.89 0 0 1 0 5.47 4.71 4.71 0 0 1-6 0 3.6 3.6 0 0 1-1.11-2.75zm7.82 34.7h-7.38V59.5h7.38zM218.36 73a16.19 16.19 0 0 1 1.58-7.3 11.51 11.51 0 0 1 4.54-5 13.3 13.3 0 0 1 6.89-1.7 12.56 12.56 0 0 1 9.11 3.42 13.67 13.67 0 0 1 3.93 9.26l.05 1.9q0 6.34-3.54 10.17a13.71 13.71 0 0 1-19 0q-3.56-3.83-3.55-10.4zm7.36.53a10.3 10.3 0 0 0 1.47 6 5.31 5.31 0 0 0 8.41 0q1.5-2.06 1.5-6.57a10.21 10.21 0 0 0-1.5-6 4.88 4.88 0 0 0-4.23-2.11 4.82 4.82 0 0 0-4.18 2.1c-.98 1.5-1.47 3.67-1.47 6.6z"/><path d="M254.72 59.5l.23 3.18a9.62 9.62 0 0 1 7.92-3.69c2.92 0 5.1.86 6.52 2.57s2.16 4.28 2.2 7.7v17.8h-7.36V69.44a4.78 4.78 0 0 0-1-3.4 4.56 4.56 0 0 0-3.4-1.04 5.05 5.05 0 0 0-4.66 2.65v19.42h-7.36V59.5zm36.68 19.95a2.35 2.35 0 0 0-1.33-2.12 14.84 14.84 0 0 0-4.29-1.39q-9.84-2.07-9.83-8.36a7.56 7.56 0 0 1 3-6.12A12.27 12.27 0 0 1 287 59a13.27 13.27 0 0 1 8.39 2.47 7.78 7.78 0 0 1 3.14 6.42h-7.36a3.6 3.6 0 0 0-1-2.61 4.31 4.31 0 0 0-3.19-1 4.41 4.41 0 0 0-2.88.84 2.67 2.67 0 0 0-1 2.14 2.25 2.25 0 0 0 1.16 2 11.76 11.76 0 0 0 3.9 1.3 32.3 32.3 0 0 1 4.64 1.24q5.83 2.13 5.83 7.4a7.21 7.21 0 0 1-3.23 6.1 14 14 0 0 1-8.4 2.27 14.62 14.62 0 0 1-6.15-1.24 10.26 10.26 0 0 1-4.24-3.34 7.84 7.84 0 0 1-1.53-4.64h7a3.85 3.85 0 0 0 1.45 3 5.75 5.75 0 0 0 3.62 1 5.27 5.27 0 0 0 3.19-.8 2.48 2.48 0 0 0 1.06-2.11zm-44.84-50.7q0-6.45 2.9-10.26a9.37 9.37 0 0 1 7.91-3.82 8.42 8.42 0 0 1 6.64 3V3.6h7.4v39.12h-6.65l-.35-2.93a8.69 8.69 0 0 1-7.08 3.44 9.36 9.36 0 0 1-7.81-3.83q-2.94-3.84-2.94-10.66zm7.36.55a10.88 10.88 0 0 0 1.35 5.94 4.39 4.39 0 0 0 3.92 2.06 4.91 4.91 0 0 0 4.81-2.88v-10.9a4.84 4.84 0 0 0-4.76-2.88q-5.32 0-5.32 8.65zM155.1 5.65v24.42q0 6.1-3.8 9.63-3.8 3.54-10.4 3.54-6.5 0-10.3-3.44-3.82-3.44-3.9-9.45V5.65h7.64v24.47q0 3.64 1.74 5.3a6.74 6.74 0 0 0 4.83 1.67q6.45 0 6.55-6.77V5.65zm2.1 81.42h-7.64l-14.87-24.4v24.4H127V50h7.64l14.9 24.44V50h7.62zm76.1-43.83a12.39 12.39 0 0 1-9.52-3.82 13.65 13.65 0 0 1-3.56-9.69v-1a15 15 0 0 1 3.37-10.1 11.21 11.21 0 0 1 9-3.95q5.56 0 8.65 3.36 3.1 3.36 3.08 9.1v4h-16.4l-.05.15a7.08 7.08 0 0 0 1.82 4.46 5.66 5.66 0 0 0 4.39 1.75 14.29 14.29 0 0 0 4.09-.49 18.94 18.94 0 0 0 3.57-1.57l2 4.6a13.61 13.61 0 0 1-4.41 2.29 18.88 18.88 0 0 1-6.04.93zm-.66-22.85a3.88 3.88 0 0 0-3.26 1.61 8.2 8.2 0 0 0-1.48 4.14l.08.13h9.1v-.66A5.94 5.94 0 0 0 236 21.8a4 4 0 0 0-3.36-1.41z"/></svg>